<svg xmlns="http://www.w3.org/2000/svg" viewBox="0 0 151 28">
  <defs>
    <style>
      .cls-1 {
        fill: #044b35;
      }

      .cls-2, .cls-5 {
        fill: none;
      }

      .cls-2 {
        stroke: #044b35;
        stroke-miterlimit: 10;
      }

      .cls-3 {
        fill: #272b2f;
        font-size: 16px;
        font-family: Calibre-Regular, Calibre;
      }

      .cls-4 {
        stroke: none;
      }
    </style>
  </defs>
  <g id="Group_1" data-name="Group 1" transform="translate(-427 -985)">
    <g id="download" transform="translate(427 985.786)">
      <g id="Group">
        <path id="Shape" class="cls-1" d="M5.555,15.421a.537.537,0,0,0,.539-.531V1.758l4.1,3.82a.527.527,0,0,0,.755-.027.507.507,0,0,0-.027-.743L5.932.139a.581.581,0,0,0-.755,0L.162,5.047a.507.507,0,0,0,0,.743.537.537,0,0,0,.378.159A.537.537,0,0,0,.917,5.79l4.1-3.98V14.89A.537.537,0,0,0,5.555,15.421Z" transform="translate(5.231 4.769)"/>
        <path id="Shape-2" data-name="Shape" class="cls-1" d="M.539,8.012a.537.537,0,0,0,.539-.531V1.857a.8.8,0,0,1,.809-.8h17.8a.8.8,0,0,1,.809.8V7.508a.539.539,0,0,0,1.079,0V1.857A1.878,1.878,0,0,0,19.684,0H1.888A1.878,1.878,0,0,0,0,1.857V7.508A.515.515,0,0,0,.539,8.012Z"/>
      </g>
    </g>
    <g id="Rectangle_8" data-name="Rectangle 8" class="cls-2" transform="translate(462.153 985)">
      <rect class="cls-4" width="51.132" height="22" rx="3.36"/>
      <rect class="cls-5" x="0.5" y="0.5" width="50.132" height="21" rx="2.86"/>
    </g>
    <text id="_.PDF" data-name=".PDF" class="cls-3" transform="translate(467 992)"><tspan x="6.788" y="10">.PDF</tspan></text>
    <g id="Rectangle_8-2" data-name="Rectangle 8" class="cls-2" transform="translate(526.868 985)">
      <rect class="cls-4" width="51.132" height="22" rx="3.36"/>
      <rect class="cls-5" x="0.5" y="0.5" width="50.132" height="21" rx="2.86"/>
    </g>
    <text id="_.PNG" data-name=".PNG" class="cls-3" transform="translate(531 992)"><tspan x="5.644" y="10">.PNG</tspan></text>
  </g>
</svg>
