<svg xmlns="http://www.w3.org/2000/svg" viewBox="0 0 21.998 21.997">
  <defs>
    <style>
      .cls-1 {
        fill: #004b35;
      }
    </style>
  </defs>
  <g id="Home" transform="translate(-0.003 -0.003)">
    <g id="Ebene_1">
      <path id="Shape" class="cls-1" d="M17.873,22H13.748a.688.688,0,0,1-.688-.688V16.5H8.936v4.811A.688.688,0,0,1,8.248,22H4.125a.688.688,0,0,1-.688-.688V11.686H.688A.687.687,0,0,1,.2,10.513L10.513.2a.686.686,0,0,1,.972,0L21.8,10.513a.687.687,0,0,1-.486,1.173H18.56v9.624A.688.688,0,0,1,17.873,22ZM8.248,15.123h5.5a.688.688,0,0,1,.688.688v4.812h2.75V11a.688.688,0,0,1,.688-.688h1.778L11,1.66,2.346,10.311H4.125A.688.688,0,0,1,4.811,11v9.624h2.75V15.81A.688.688,0,0,1,8.248,15.123Z" transform="translate(0.003 0.003)"/>
    </g>
  </g>
</svg>
